<svg xmlns="http://www.w3.org/2000/svg" xmlns:xlink="http://www.w3.org/1999/xlink" viewBox="0 0 159.38 159.38"><defs><style>.cls-1{fill:url(#linear-gradient);}.cls-2{fill:#fff;fill-rule:evenodd;}</style><linearGradient id="linear-gradient" y1="79.69" x2="159.38" y2="79.69" gradientUnits="userSpaceOnUse"><stop offset="0" stop-color="#20b038"/><stop offset="1" stop-color="#60d66a"/></linearGradient></defs><title>ico-whatsapp</title><g id="Layer_2" data-name="Layer 2"><g id="OBJECTS"><circle class="cls-1" cx="79.69" cy="79.69" r="79.69"/><path class="cls-2" d="M134.26,78.29a53.68,53.68,0,0,1-79.48,46.55l-29.67,9.42,9.67-28.52A52.59,52.59,0,0,1,27.1,78.29a53.58,53.58,0,0,1,107.16,0ZM80.68,33.58A44.93,44.93,0,0,0,35.63,78.29a44.31,44.31,0,0,0,8.58,26.21l-5.62,16.59,17.31-5.5a44.82,44.82,0,1,0,24.78-82Zm27.06,57c-.33-.54-1.21-.87-2.52-1.52s-7.77-3.81-9-4.24-2.09-.65-3,.65-3.39,4.24-4.16,5.11-1.53,1-2.84.33a35.85,35.85,0,0,1-10.57-6.47,39.82,39.82,0,0,1-7.31-9c-.76-1.31-.07-2,.58-2.66s1.31-1.52,2-2.28a8.72,8.72,0,0,0,1.31-2.18A2.37,2.37,0,0,0,72.16,66c-.32-.65-3-7.07-4-9.68s-2.18-2.51-3-2.51A18.48,18.48,0,0,0,63,54s-2.64.33-3.84,1.63a14.58,14.58,0,0,0-4.59,10.87c0,6.41,4.7,12.61,5.35,13.47S69,94.45,82.34,99.66s13.36,3.48,15.77,3.26,7.76-3.15,8.86-6.19,1.1-5.66.77-6.2Z"/></g></g></svg>