<svg id="Layer_1" data-name="Layer 1" xmlns="http://www.w3.org/2000/svg" viewBox="0 0 235.52 45.2"><defs><style>.cls-1{fill:#f5a83d;}</style></defs><title>logo-Ready-gold</title><path class="cls-1" d="M231,4.39a1.37,1.37,0,0,0-.42-2.68h-1.71a.35.35,0,0,0-.35.34V5.48a.35.35,0,0,0,.35.34.34.34,0,0,0,.34-.34v-1h.88l1.28,1.27a.3.3,0,0,0,.23.1.33.33,0,0,0,.25-.1.34.34,0,0,0,0-.49Zm-1.79-2h1.37a.68.68,0,0,1,.68.68.69.69,0,0,1-.68.69h-1.37Z"/><path class="cls-1" d="M230.24,0A3.77,3.77,0,1,0,234,3.77,3.77,3.77,0,0,0,230.24,0m0,6.84a3.08,3.08,0,1,1,3.08-3.07,3.07,3.07,0,0,1-3.08,3.07"/><path class="cls-1" d="M83.34,7.53a3.77,3.77,0,1,0,0-7.53H53.21a3.76,3.76,0,0,0-3.77,3.77V41.43a3.77,3.77,0,0,0,3.77,3.77H83.34a3.77,3.77,0,0,0,0-7.54H57V26.37H75.81a3.77,3.77,0,0,0,0-7.54H57V7.53Z"/><path class="cls-1" d="M116.84,2.08a3.77,3.77,0,0,0-6.74,0L91.27,39.75A3.77,3.77,0,0,0,98,43.11l15.47-30.92,15.45,30.92a3.79,3.79,0,0,0,3.38,2.09,3.71,3.71,0,0,0,1.68-.4,3.77,3.77,0,0,0,1.69-5Z"/><path class="cls-1" d="M223.23.87a3.77,3.77,0,0,0-5.3.48L202,20.48,186.05,1.35a3.77,3.77,0,0,0-5.79,4.82l18,21.55V41.43a3.77,3.77,0,1,0,7.53,0V27.72l18-21.55a3.76,3.76,0,0,0-.48-5.3"/><path class="cls-1" d="M162.44,0H143.6a3.76,3.76,0,0,0-3.76,3.77V41.44a3.76,3.76,0,0,0,3.76,3.76h18.84a15.08,15.08,0,0,0,15.07-15.06V15.07A15.08,15.08,0,0,0,162.44,0m0,37.66H147.37V7.53h15.07A7.54,7.54,0,0,1,170,15.07V30.14a7.54,7.54,0,0,1-7.53,7.52"/><path class="cls-1" d="M37.86,32.05a15,15,0,0,0,7.81-13.22V15.07A15.07,15.07,0,0,0,30.61,0H26.85a3.77,3.77,0,1,0,0,7.53h3.76a7.55,7.55,0,0,1,7.54,7.54v3.76A7.6,7.6,0,0,1,32.8,26a4,4,0,0,0-.68.28L13.34,7.53h4.09a3.77,3.77,0,0,0,0-7.53H4.18a1.42,1.42,0,0,0-.3,0,1.2,1.2,0,0,0-.2,0l-.17,0L3.3.12l-.15,0L3,.23,2.8.28,2.63.37,2.47.44,2.3.54,2.15.63,2,.77,1.86.85a4.42,4.42,0,0,0-.53.53l-.09.12-.13.17A1.29,1.29,0,0,0,1,1.83L.92,2c0,.06-.05.11-.08.16s0,.11-.07.18,0,.11-.07.16l-.06.18a1.09,1.09,0,0,1-.05.17c0,.06,0,.12,0,.18a1.62,1.62,0,0,0,0,.2,1,1,0,0,0,0,.17c0,.13,0,.25,0,.38V17A3.77,3.77,0,0,0,8,17V12.87L39.25,44.09a3.74,3.74,0,0,0,5.32,0,3.76,3.76,0,0,0,0-5.32Z"/><path class="cls-1" d="M4.24,22.6A3.76,3.76,0,0,0,.48,26.37V41.43a3.77,3.77,0,1,0,7.53,0V26.37A3.77,3.77,0,0,0,4.24,22.6"/></svg>