<svg id="Layer_1" data-name="Layer 1" xmlns="http://www.w3.org/2000/svg" viewBox="0 0 355 55"><defs><style>.cls-1{fill:#f5a83d;}.cls-2{fill:silver;}.cls-3{fill:#1d1d1b;}</style></defs><title>Logo-Ready-30</title><path class="cls-1" d="M233.48,6.39a1.38,1.38,0,0,0-.42-2.68h-1.72a.34.34,0,0,0-.34.34V7.48a.35.35,0,0,0,.69,0v-1h.88l1.28,1.27a.3.3,0,0,0,.23.1.35.35,0,0,0,.25-.1.36.36,0,0,0,0-.49Zm-1.79-2h1.37a.68.68,0,0,1,.68.68.69.69,0,0,1-.68.69h-1.37Z"/><path class="cls-1" d="M232.72,2a3.77,3.77,0,1,0,3.76,3.77A3.77,3.77,0,0,0,232.72,2m0,6.84a3.08,3.08,0,1,1,3.08-3.07,3.07,3.07,0,0,1-3.08,3.07"/><path class="cls-1" d="M85.82,9.53a3.77,3.77,0,1,0,0-7.53H55.69a3.76,3.76,0,0,0-3.77,3.77V43.43a3.77,3.77,0,0,0,3.77,3.77H85.82a3.77,3.77,0,1,0,0-7.54H59.45V28.37H78.29a3.77,3.77,0,0,0,0-7.54H59.45V9.53Z"/><path class="cls-1" d="M119.32,4.08a3.77,3.77,0,0,0-6.74,0L93.75,41.75a3.77,3.77,0,0,0,6.74,3.36L116,14.19l15.46,30.92a3.77,3.77,0,1,0,6.74-3.36Z"/><path class="cls-1" d="M225.71,2.87a3.77,3.77,0,0,0-5.3.48L204.46,22.48,188.53,3.35a3.77,3.77,0,0,0-5.79,4.82l18,21.55V43.43a3.77,3.77,0,1,0,7.53,0V29.72l18-21.55a3.76,3.76,0,0,0-.48-5.3"/><path class="cls-1" d="M164.91,2H146.08a3.77,3.77,0,0,0-3.77,3.77V43.44a3.77,3.77,0,0,0,3.77,3.76h18.83A15.08,15.08,0,0,0,180,32.14V17.07A15.08,15.08,0,0,0,164.91,2m0,37.66H149.85V9.53h15.06a7.54,7.54,0,0,1,7.53,7.54V32.14a7.53,7.53,0,0,1-7.53,7.52"/><path class="cls-1" d="M40.33,34.05a15,15,0,0,0,7.82-13.22V17.07A15.08,15.08,0,0,0,33.08,2H29.32a3.77,3.77,0,1,0,0,7.53h3.76a7.55,7.55,0,0,1,7.54,7.54v3.76A7.58,7.58,0,0,1,35.27,28a4.32,4.32,0,0,0-.67.28L15.82,9.53H19.9A3.77,3.77,0,1,0,19.9,2H6.66a1.32,1.32,0,0,0-.3,0l-.21,0L6,2.07l-.22.05-.14,0-.2.07-.15,0-.18.09L5,2.44l-.17.1-.15.09-.18.14-.12.08a3.72,3.72,0,0,0-.52.53.94.94,0,0,0-.09.12,1,1,0,0,0-.13.17.65.65,0,0,0-.09.16L3.4,4c0,.06-.06.11-.08.16a1,1,0,0,0-.08.18,1,1,0,0,0-.06.16,1.34,1.34,0,0,0-.07.18c0,.06,0,.11,0,.17S3,5,3,5a.75.75,0,0,0,0,.2l0,.17c0,.13,0,.25,0,.38V19a3.77,3.77,0,0,0,7.53,0V14.87L41.72,46.09a3.77,3.77,0,1,0,5.33-5.32Z"/><path class="cls-1" d="M6.72,24.6A3.77,3.77,0,0,0,3,28.37V43.43a3.77,3.77,0,1,0,7.53,0V28.37A3.76,3.76,0,0,0,6.72,24.6"/><rect class="cls-2" x="251.48" y="1.71" width="1" height="45"/><path class="cls-3" d="M265.08,14.7c.49-4.12,1.83-7.64,5.27-10.26,4.08-3.07,9.49-3.13,11.39-3.13,6,0,9.35,1.56,11.25,3.07a11.09,11.09,0,0,1,4.29,8.82,9.61,9.61,0,0,1-3.59,7.7,15.23,15.23,0,0,1-4.28,2.16,20.16,20.16,0,0,1,2.74.72,9.74,9.74,0,0,1,6.32,9.4,13,13,0,0,1-3.3,8.5c-3.73,4.24-9.49,5.48-14.76,5.48-4.85,0-9.7-1.37-12.87-4.83-3.37-3.72-3.37-8.23-3.37-10.84l11-.85c0,.65-.07,1.24-.07,1.89,0,4.12,2.61,6.53,5.84,6.53,3.72,0,6.26-2.41,6.26-6.53,0-6-5.84-5.75-8.58-5.62V19.4a12.43,12.43,0,0,0,3.51-.13,5,5,0,0,0,4.08-5,4.87,4.87,0,0,0-5.13-5c-4.85,0-4.85,4.51-4.85,6.4Z"/><path class="cls-3" d="M310.55,39.07c.26-.08.55-.15.89-.22,1.05-2.24,2.14-4.42,3.23-6.49.61-1.17,1.16-2.17,1.65-3-.1-1.15-.13-2.26-.13-3.27,0-10,1.47-16.33,6.18-16.52a4.76,4.76,0,0,1,4.43,2.61c1.69,2.74,2.25,8,2.25,12.41a44.94,44.94,0,0,1-.41,6.12h.06a3.25,3.25,0,0,0,.89-.1,2.84,2.84,0,0,0,.32-.14,2,2,0,0,1,1-.26,2,2,0,0,1,1.43.6,2,2,0,0,1,.3,2.4,5.38,5.38,0,0,1-2.31,2.28,2.93,2.93,0,0,1,.63.68,3.86,3.86,0,0,1,.44.83,5.27,5.27,0,0,1,2.44-2.73,8.76,8.76,0,0,1,.53-1.4,4.74,4.74,0,0,1,2.86-2.6,3.57,3.57,0,0,1,1.13-.19,3,3,0,0,1,.86.14,40.91,40.91,0,0,0,.41-5.77c0-6.34-1.62-23.58-17.51-23.06a14.86,14.86,0,0,0-12.51,7.12c-3.31,5.16-3.8,11.24-3.8,15.42,0,7.11,1.09,12.15,3.25,15.84A6.94,6.94,0,0,1,310.55,39.07Z"/><path class="cls-3" d="M314.39,45.33c0-.15,0-.3,0-.47l-.14.39Z"/><path class="cls-3" d="M326.46,46.9a3.28,3.28,0,0,1-1.08-2.34c-.39.81-.66,1.42-.83,1.82l-.38.89a19.93,19.93,0,0,0,2.29-.36Z"/><path class="cls-1" d="M308.52,52.31q0-2.13,3.52-10c-.94.19-1.77.41-2.5.63l-.81.26A3.24,3.24,0,0,1,311.14,41a10.8,10.8,0,0,1,1.67-.32q1.79-3.87,3.63-7.37a51.74,51.74,0,0,1,2.91-5.07q.66-1,1.11-1.14c.32-.1.73.08,1.23.53q-.76,1-2.19,7.73a54.4,54.4,0,0,0-1.43,10.25c0,1.5.29,2.16.86,2q1.27-.39,3-5.1l.24.21A17.34,17.34,0,0,1,320.4,47a4.44,4.44,0,0,1-2.21,2.13c-1.21.38-1.81-.74-1.81-3.33a28.66,28.66,0,0,1,.39-4.31c-1,.12-2.13.29-3.43.5-1.51,3.9-2.86,7.73-4,11.52A1.19,1.19,0,0,1,308.52,52.31Zm5.42-11.75,1.7-.05c.72,0,1.16,0,1.29,0a74.48,74.48,0,0,1,2.79-11.38Q317.61,31.36,313.94,40.56Z"/><path class="cls-1" d="M320.62,47.36c0-.06.14-.55.41-1.47s.54-2,.82-3.18a13.22,13.22,0,0,0,.42-2.88,1.92,1.92,0,0,1,1.06-.93c.42-.13.63.06.63.55a21.9,21.9,0,0,1-.74,4c1.77-3.89,3.38-6.07,4.82-6.51a1,1,0,0,1,1.25.36,2.88,2.88,0,0,1,.44,1.68,9.65,9.65,0,0,1-.46,2.54,9.53,9.53,0,0,0-.47,2.25c0,.72.23,1,.68.87q1.44-.43,3.24-5.45l.26.29q-1.67,5.34-4,6.06a1.19,1.19,0,0,1-1.2-.13,1.49,1.49,0,0,1-.41-1.19,11,11,0,0,1,.33-2A11.15,11.15,0,0,0,328,40q0-1.41-.93-1.11a2.76,2.76,0,0,0-1.19.91,12.2,12.2,0,0,0-1.13,1.52,22.18,22.18,0,0,0-1.15,2.18c-.43.94-.75,1.62-.93,2.06l-.86,2Q321,47.87,320.62,47.36Zm3.15-12.76a3.49,3.49,0,0,1,1.93-1.91,6.25,6.25,0,0,1,2.09,0,6.58,6.58,0,0,0,2.4-.14,4.19,4.19,0,0,0,.69-.31,3.25,3.25,0,0,1-1.81,1.62,6,6,0,0,1-2.07.09,5.8,5.8,0,0,0-2.16.12A3,3,0,0,0,323.77,34.6Z"/><path class="cls-1" d="M332.07,42.32a10.23,10.23,0,0,1,.85-3.9c.56-1.38,1.17-2.18,1.82-2.38a1.09,1.09,0,0,1,.48,0,10,10,0,0,0-1,2.6,11.59,11.59,0,0,0-.6,3c0,1.12.27,1.6.83,1.42s1.51-1.24,2.48-3.11a2.88,2.88,0,0,1-1-1.39,5.84,5.84,0,0,1-.36-2.09,6.2,6.2,0,0,1,.62-2.75,2.85,2.85,0,0,1,1.65-1.58c1.07-.33,1.6.25,1.6,1.73a13.75,13.75,0,0,1-1.55,5.56,1.33,1.33,0,0,0,.88,0,3.52,3.52,0,0,0,1.39-.93,4.49,4.49,0,0,0,1.09-1.89l.28.2a5.7,5.7,0,0,1-1.25,2.24,4,4,0,0,1-1.67,1.12,2,2,0,0,1-1.11.06q-1.86,3.57-3.55,4.09a1.15,1.15,0,0,1-1.39-.28A2.86,2.86,0,0,1,332.07,42.32Zm4.45-6.06a4.18,4.18,0,0,0,.79,2.83,11.93,11.93,0,0,0,1.34-4.81q0-1.59-.69-1.38c-.34.11-.67.5-1,1.17A5.21,5.21,0,0,0,336.52,36.26Z"/><path class="cls-1" d="M340.3,39.13a4.09,4.09,0,0,1,.21-1.36,2.35,2.35,0,0,1,.47-.86,6.28,6.28,0,0,1,.54-.49,2.26,2.26,0,0,0,.35-.34,25.37,25.37,0,0,0,2.28-4.84v-.35a3.63,3.63,0,0,1,.26-1.53,1.18,1.18,0,0,1,.64-.69c.25-.07.37,0,.37.26a4.53,4.53,0,0,1-.07.48,5.79,5.79,0,0,0-.07.82,13.08,13.08,0,0,0,.6,3,13,13,0,0,1,.61,3.52,7.33,7.33,0,0,1-.14,1.44c1.14-.61,2.11-2,2.92-4.13l.21.22a6.35,6.35,0,0,1-3.25,4.4,4.36,4.36,0,0,1-3,3.28,1.9,1.9,0,0,1-2.26-.41A3.75,3.75,0,0,1,340.3,39.13Zm1.13-.35a2.85,2.85,0,0,0,.52,1.76,1.14,1.14,0,0,0,1.37.42,2.32,2.32,0,0,0,1.45-1.85,2.93,2.93,0,0,1-1.68-.37,3,3,0,0,1-1.15-1.11C341.6,37.75,341.43,38.13,341.43,38.78Zm.6-2.07a2.8,2.8,0,0,0,2.86,1.91,11,11,0,0,0,0-3c-.07-.56-.18-1.18-.32-1.85s-.23-1.15-.28-1.44A29,29,0,0,1,342,36.71Z"/></svg>