<svg id="Layer_1" data-name="Layer 1" xmlns="http://www.w3.org/2000/svg" viewBox="0 0 233.52 45.2"><defs><style>.cls-1{fill:#1d1f31;}</style></defs><title>logo-Ready-blue</title><path class="cls-1" d="M230.52,4.39a1.37,1.37,0,0,0-.42-2.68h-1.71a.35.35,0,0,0-.35.34V5.48a.35.35,0,0,0,.35.34.34.34,0,0,0,.34-.34v-1h.89l1.27,1.27a.34.34,0,0,0,.24.1.36.36,0,0,0,.25-.1.36.36,0,0,0,0-.49Zm-1.79-2h1.37a.68.68,0,0,1,.69.68.69.69,0,0,1-.69.69h-1.37Z"/><path class="cls-1" d="M229.76,0a3.77,3.77,0,1,0,3.76,3.77A3.78,3.78,0,0,0,229.76,0m0,6.84a3.08,3.08,0,1,1,3.08-3.07,3.07,3.07,0,0,1-3.08,3.07"/><path class="cls-1" d="M82.87,7.53a3.77,3.77,0,1,0,0-7.53H52.73A3.77,3.77,0,0,0,49,3.77V41.43a3.77,3.77,0,0,0,3.77,3.77H82.87a3.77,3.77,0,0,0,0-7.54H56.5V26.37H75.33a3.77,3.77,0,0,0,0-7.54H56.5V7.53Z"/><path class="cls-1" d="M116.37,2.08a3.77,3.77,0,0,0-6.74,0L90.79,39.75a3.77,3.77,0,0,0,6.75,3.36L113,12.19l15.46,30.92a3.77,3.77,0,1,0,6.74-3.36Z"/><path class="cls-1" d="M222.76.87a3.78,3.78,0,0,0-5.31.48L201.51,20.48,185.58,1.35a3.77,3.77,0,0,0-5.8,4.82l18,21.55V41.43a3.77,3.77,0,0,0,7.54,0V27.72l18-21.55a3.76,3.76,0,0,0-.48-5.3"/><path class="cls-1" d="M162,0H143.13a3.77,3.77,0,0,0-3.77,3.77V41.44a3.77,3.77,0,0,0,3.77,3.76H162A15.08,15.08,0,0,0,177,30.14V15.07A15.08,15.08,0,0,0,162,0m0,37.66H146.9V7.53H162a7.54,7.54,0,0,1,7.53,7.54V30.14A7.54,7.54,0,0,1,162,37.66"/><path class="cls-1" d="M37.38,32.05A15,15,0,0,0,45.2,18.83V15.07A15.08,15.08,0,0,0,30.13,0H26.37a3.77,3.77,0,1,0,0,7.53h3.76a7.55,7.55,0,0,1,7.54,7.54v3.76A7.58,7.58,0,0,1,32.32,26a4.43,4.43,0,0,0-.68.28L12.86,7.53H17A3.77,3.77,0,0,0,17,0H3.71a1.32,1.32,0,0,0-.3,0,1.18,1.18,0,0,0-.21,0L3,.07l-.21,0-.15,0-.2.07L2.33.28,2.15.37,2,.44l-.17.1L1.68.63A1.24,1.24,0,0,0,1.5.77L1.38.85a4.42,4.42,0,0,0-.53.53.94.94,0,0,1-.09.12,1.77,1.77,0,0,0-.12.17,1.4,1.4,0,0,0-.1.16L.45,2l-.08.16a1,1,0,0,0-.08.18s0,.11-.07.16l-.06.18c0,.06,0,.11,0,.17A1.21,1.21,0,0,1,.07,3l0,.2c0,.06,0,.11,0,.17s0,.25,0,.38V17a3.77,3.77,0,0,0,7.53,0V12.87L38.77,44.09a3.77,3.77,0,1,0,5.33-5.32Z"/><path class="cls-1" d="M3.77,22.6A3.77,3.77,0,0,0,0,26.37V41.43a3.77,3.77,0,1,0,7.53,0V26.37A3.76,3.76,0,0,0,3.77,22.6"/></svg>