<svg id="Layer_1" data-name="Layer 1" xmlns="http://www.w3.org/2000/svg" viewBox="0 0 310 70"><defs><style>.cls-1{fill:#53575a;}</style></defs><title>logo-Royaltext</title><path class="cls-1" d="M29.46,34.92a5.2,5.2,0,1,1,5.19-5.19,5.2,5.2,0,0,1-5.19,5.19m0-7.42a2.23,2.23,0,1,0,2.22,2.23,2.23,2.23,0,0,0-2.22-2.23"/><path class="cls-1" d="M29.46,42.34A12.62,12.62,0,1,1,42.07,29.73,12.63,12.63,0,0,1,29.46,42.34m0-22.26a9.65,9.65,0,1,0,9.65,9.65,9.66,9.66,0,0,0-9.65-9.65"/><path class="cls-1" d="M29.46,49.76a20,20,0,1,1,15.22-33l-2.26,1.93A17.05,17.05,0,1,0,39.7,43.38l1.78,2.37a19.88,19.88,0,0,1-12,4"/><path class="cls-1" d="M29.46,57.18A27.46,27.46,0,1,1,49.07,10.52L47,12.59A24.49,24.49,0,1,0,29.46,54.21,24.16,24.16,0,0,0,40,51.85l1.28,2.68a27.19,27.19,0,0,1-11.77,2.65"/><path class="cls-1" d="M29.46,49.76a20,20,0,1,1,15.22-33l-2.26,1.93A17.05,17.05,0,1,0,39.7,43.38l1.78,2.37a19.88,19.88,0,0,1-12,4"/><path class="cls-1" d="M79.18,66.83h-3a9.66,9.66,0,0,0-9.65-9.65H55.43v-3H66.56A12.63,12.63,0,0,1,79.18,66.83"/><path class="cls-1" d="M86.6,66.83h-3A17.09,17.09,0,0,0,66.56,49.76H55.43v-3H66.56a20.06,20.06,0,0,1,20,20"/><path class="cls-1" d="M94,66.83h-3A24.52,24.52,0,0,0,66.56,42.34H55.43v-3H66.56A27.49,27.49,0,0,1,94,66.83"/><path class="cls-1" d="M66.56,34.92a5.2,5.2,0,1,1,5.2-5.19,5.2,5.2,0,0,1-5.2,5.19m0-7.42a2.23,2.23,0,1,0,2.23,2.23,2.23,2.23,0,0,0-2.23-2.23"/><path class="cls-1" d="M56.91,66.83H54V29.73A12.62,12.62,0,1,1,66.56,42.34v-3a9.65,9.65,0,1,0-9.65-9.64Z"/><path class="cls-1" d="M49.49,66.83h-3V29.73A20,20,0,1,1,79.58,45l-1.93-2.26a17.06,17.06,0,1,0-28.16-13Z"/><path class="cls-1" d="M42.07,66.83h-3V29.73A27.46,27.46,0,1,1,85.78,49.34L83.7,47.22A24.49,24.49,0,1,0,42.07,29.73Z"/><path class="cls-1" d="M129.62,24.46c-5.16,0-9.36,4.53-9.36,10.09s4.2,10.09,9.36,10.09S139,40.11,139,34.55s-4.19-10.09-9.35-10.09m0,16.32c-3,0-5.5-2.8-5.5-6.23s2.47-6.23,5.5-6.23,5.49,2.79,5.49,6.23-2.46,6.23-5.49,6.23"/><path class="cls-1" d="M185,40.79V24.46H182.3a1.18,1.18,0,0,0-1.18,1.19v17.8a1.19,1.19,0,0,0,1.15,1.19h13.42a1.19,1.19,0,0,0,1.16-1.19V40.79Z"/><path class="cls-1" d="M155.31,24.46l-5,8.28-5.05-8.28h-2.4a1.19,1.19,0,0,0-1.19,1.19,1.31,1.31,0,0,0,.13.55v0l6.7,11v7.44h2.67a1.23,1.23,0,0,0,.83-.33l0,0a1.21,1.21,0,0,0,.34-.84V36.77l7.5-12.31Z"/><path class="cls-1" d="M169.3,25.25a1.2,1.2,0,0,0-2.19,0l0,.08L158.89,44l0,.1v.53h4l1.3-3h8.14l1.3,3H176a1.18,1.18,0,0,0,1.19-1.18,1,1,0,0,0-.1-.47Zm1.29,12.56h-4.77l2.39-5.43Z"/><path class="cls-1" d="M118.19,30.84a6.38,6.38,0,0,0-6.38-6.38h-8.16a1.19,1.19,0,0,0-1.19,1.19v19h3.86V37.22h2.29l5.26,7.42h2.44a1.19,1.19,0,0,0,1.18-1.19,1.16,1.16,0,0,0-.19-.64l0-.05-4-5.7a6.36,6.36,0,0,0,5-6.22m-6.38,2.53h-5.49v-5h5.49a2.53,2.53,0,0,1,0,5"/><path class="cls-1" d="M213.48,24.46H197.15A1.19,1.19,0,0,0,196,25.65v2.67h7.42V44.64h2.67a1.19,1.19,0,0,0,1.19-1.19V28.32h7.43V25.65a1.19,1.19,0,0,0-1.19-1.19"/><path class="cls-1" d="M231.29,24.46H217.93a1.19,1.19,0,0,0-1.19,1.19v19h14.55a1.19,1.19,0,0,0,1.19-1.19V40.78H220.6v-4.3h8.9V32.63h-8.9V28.32h11.88V25.65a1.19,1.19,0,0,0-1.19-1.19"/><path class="cls-1" d="M248.9,24.46l-5,6.82-5-6.82h-2.43a1.19,1.19,0,0,0-1.2,1.19,1.15,1.15,0,0,0,.21.66v0l0,.06,6,8.16-7.39,10.09h4.78l5-6.82,5,6.82h2.44a1.18,1.18,0,0,0,1.18-1.19,1.21,1.21,0,0,0-.18-.64l-.2-.27h0l-5.85-8,7.39-10.09Z"/><path class="cls-1" d="M307.72,40.78a1.93,1.93,0,1,0,0,3.85,1.93,1.93,0,1,0,0-3.85"/><path class="cls-1" d="M281,40.78a1.93,1.93,0,1,0,1.93,1.93A1.93,1.93,0,0,0,281,40.78"/><path class="cls-1" d="M270.62,24.46a10.11,10.11,0,0,0-4.92,1.28,5.14,5.14,0,0,0-1,.63,5.25,5.25,0,0,0-2,4.1,5.05,5.05,0,0,0,2.91,4.75,15.58,15.58,0,0,0,4.65,1.22c3.75.6,4.32,1,4.32,2.19a1.37,1.37,0,0,1-.48,1,3.84,3.84,0,0,1-.42.27,5,5,0,0,1-.68.35h0a6,6,0,0,1-2.42.49,9.54,9.54,0,0,1-7.09-2.84l-.78-.87v5.27l.21.13a14,14,0,0,0,7.66,2.17,10,10,0,0,0,4.92-1.28,5.07,5.07,0,0,0,1-.63,5.22,5.22,0,0,0,2-4.1,5.07,5.07,0,0,0-2.91-4.77,15.35,15.35,0,0,0-4.63-1.22h0c-3.73-.58-4.3-1-4.3-2.16a1.37,1.37,0,0,1,.47-1l.42-.27a5.68,5.68,0,0,1,.7-.35,6.19,6.19,0,0,1,2.42-.49,9.5,9.5,0,0,1,7.09,2.84l.77.89V26.77l-.2-.13a14.16,14.16,0,0,0-7.66-2.18"/><path class="cls-1" d="M295.45,25.25a1.19,1.19,0,0,0-2.18,0l0,.08L285.05,44l0,.1v.53h4l1.3-3h8.14l1.31,3h2.39a1.18,1.18,0,0,0,1.19-1.18,1.16,1.16,0,0,0-.09-.47Zm1.3,12.56H292l2.38-5.43Z"/></svg>